<svg width="14" height="16" viewBox="0 0 14 16" fill="none" xmlns="http://www.w3.org/2000/svg">
<path d="M12.6001 6.4H11.8001V4.8C11.8001 3.52696 11.2944 2.30606 10.3942 1.40589C9.49404 0.505713 8.27314 0 7.0001 0C5.72706 0 4.50616 0.505713 3.60599 1.40589C2.70581 2.30606 2.2001 3.52696 2.2001 4.8V6.4H1.4001C1.18792 6.4 0.984441 6.48429 0.834412 6.63432C0.684383 6.78434 0.600098 6.98783 0.600098 7.2V15.2C0.600098 15.4122 0.684383 15.6157 0.834412 15.7657C0.984441 15.9157 1.18792 16 1.4001 16H12.6001C12.8123 16 13.0158 15.9157 13.1658 15.7657C13.3158 15.6157 13.4001 15.4122 13.4001 15.2V7.2C13.4001 6.98783 13.3158 6.78434 13.1658 6.63432C13.0158 6.48429 12.8123 6.4 12.6001 6.4ZM3.8001 4.8C3.8001 3.95131 4.13724 3.13737 4.73736 2.53726C5.33747 1.93714 6.1514 1.6 7.0001 1.6C7.84879 1.6 8.66272 1.93714 9.26284 2.53726C9.86296 3.13737 10.2001 3.95131 10.2001 4.8V6.4H3.8001V4.8ZM7.0001 12.8C6.68365 12.8 6.3743 12.7062 6.11119 12.5304C5.84807 12.3545 5.64299 12.1047 5.52189 11.8123C5.40079 11.5199 5.3691 11.1982 5.43084 10.8879C5.49258 10.5775 5.64496 10.2924 5.86873 10.0686C6.09249 9.84487 6.37758 9.69248 6.68795 9.63074C6.99832 9.56901 7.32003 9.60069 7.61239 9.72179C7.90475 9.84289 8.15464 10.048 8.33045 10.3111C8.50626 10.5742 8.6001 10.8835 8.6001 11.2C8.6001 11.6243 8.43153 12.0313 8.13147 12.3314C7.83141 12.6314 7.42444 12.8 7.0001 12.8Z" fill="#7070704D"/>
</svg>
