<svg xmlns="http://www.w3.org/2000/svg" width="40" height="40" viewBox="0 0 40 40"><defs><style>.a{fill:#ccc;}</style></defs><g transform="translate(-850 -960)"><path class="a" d="M20.8,0H19.2a20,20,0,1,0,1.6,0ZM20,38.4a18.409,18.409,0,0,1-.8-36.8v8.8H14.08c-2.88,0-6.48,2.72-7.92,7.6-1.44,5.04-.08,9.84,3.04,10.8a4.682,4.682,0,0,0,1.04.16c1.84,0,3.76-1.28,5.28-3.44a3.453,3.453,0,0,1,2.72-1.44h3.44a3.23,3.23,0,0,1,2.72,1.44c1.52,2.16,3.44,3.44,5.28,3.44a4.682,4.682,0,0,0,1.04-.16c3.12-.88,4.48-5.76,3.04-10.8-1.36-4.8-5.04-7.6-7.92-7.6H20.8V1.6A18.409,18.409,0,0,1,20,38.4ZM20.8,12h5.12c2.24,0,5.2,2.4,6.4,6.4,1.28,4.48,0,8.24-1.92,8.8a1.56,1.56,0,0,1-.64.08c-1.28,0-2.8-1.04-4-2.8a4.832,4.832,0,0,0-4.08-2.08H18.24a5.154,5.154,0,0,0-4.08,2.08c-1.2,1.76-2.72,2.8-4,2.8a1.762,1.762,0,0,1-.64-.08c-1.92-.56-3.2-4.32-1.92-8.8,1.2-4,4.16-6.4,6.4-6.4h6.8Zm-6.4,2.4a.756.756,0,0,1,.8.8v1.6h1.6a.8.8,0,0,1,0,1.6H15.2V20a.8.8,0,1,1-1.6,0V18.4H12a.8.8,0,1,1,0-1.6h1.6V15.2A.756.756,0,0,1,14.4,14.4Zm9.04,4.24,1.04-1.04-1.04-1.04a.792.792,0,0,1,1.12-1.12l1.04,1.04,1.04-1.04a.792.792,0,0,1,1.12,1.12L26.72,17.6l1.04,1.04a.773.773,0,0,1,0,1.12.773.773,0,0,1-1.12,0L25.6,18.72l-1.04,1.04a.773.773,0,0,1-1.12,0A.773.773,0,0,1,23.44,18.64Z" transform="translate(850 960)"/></g></svg>