<svg width="20" height="20" viewBox="0 0 20 20" fill="none" xmlns="http://www.w3.org/2000/svg">
<path d="M18 9H11V2C11 1.73478 10.8946 1.48043 10.7071 1.29289C10.5196 1.10536 10.2652 1 10 1C9.73478 1 9.48043 1.10536 9.29289 1.29289C9.10536 1.48043 9 1.73478 9 2V9H2C1.73478 9 1.48043 9.10536 1.29289 9.29289C1.10536 9.48043 1 9.73478 1 10C1 10.2652 1.10536 10.5196 1.29289 10.7071C1.48043 10.8946 1.73478 11 2 11H9V18C9 18.2652 9.10536 18.5196 9.29289 18.7071C9.48043 18.8946 9.73478 19 10 19C10.2652 19 10.5196 18.8946 10.7071 18.7071C10.8946 18.5196 11 18.2652 11 18V11H18C18.2652 11 18.5196 10.8946 18.7071 10.7071C18.8946 10.5196 19 10.2652 19 10C19 9.73478 18.8946 9.48043 18.7071 9.29289C18.5196 9.10536 18.2652 9 18 9Z" fill="#9B9B9B"/>
</svg>
