<svg xmlns="http://www.w3.org/2000/svg" viewBox="0 0 16 28"><path fill="#AFAFAF" d="M3.023,12.8a19.376,19.376,0,0,1,13.959,0c3.93,1.757,4.056,4.658.183,6.481a19.161,19.161,0,0,1-14.311,0C-1.023,17.458-.9,14.557,3.023,12.8Zm12.215,2.624a23.49,23.49,0,0,0-10.469,0l-.333.1q-.24.074-.451.153l-.267.107c-1.863.8-1.585,1.875.924,2.59a23.175,23.175,0,0,0,10.734,0c2.79-.8,2.813-2.044.2-2.849ZM3,10.266a19.92,19.92,0,0,1,13.974,0c2.063.9,3.068,2.1,3.009,3.3a9.009,9.009,0,0,0-2.33-1.452,19.315,19.315,0,0,0-7.669-1.445,19.3,19.3,0,0,0-7.666,1.445A8.981,8.981,0,0,0,0,13.559C-.058,12.362.945,11.161,3,10.266Z" /></svg>
